{"title":"Drag.Me.to.Hell.2009.DVDRIP.XviD-ZEKTORM","uid":5099912,"size":735259098,"categoryP":"video","categoryS":"movies","magnet":"?xt=urn:btih:863cde9f6266475bd2d853ce8e063e0ab8f45799&amp;dn=Drag.Me.to.Hell.2009.DVDRIP.XviD-ZEKTORM&amp;tr=udp%3A%2F%2Ftracker.openbittorrent.com%3A80&amp;tr=udp%3A%2F%2Fopen.demonii.com%3A1337&amp;tr=udp%3A%2F%2Ftracker.coppersurfer.tk%3A6969&amp;tr=udp%3A%2F%2Fexodus.desync.com%3A6969","seeders":0,"leechers":1,"uploader":"blowley","files":2,"time":1253891781,"description":"Title                            : Drag Me to Hell\nYear                             : 2009\nGenre                            : Fantasy | Horror | Thriller\niMDB URL                         : http://www.imdb.com/title/tt1127180/\nAwards                           : 1 nomination\n\nComplete name                    : Drag.Me.to.Hell.2009.DVDRIP.XviD-ZEKTORM.avi\nFormat                           : AVI\nFile size                        : 701 MiB\nDuration                         : 1h 38mn\nOverall bit rate                 : 992 Kbps\nSource                           : DVD NTSC\n\nVideo\nFormat                           : MPEG-4 Visual\nFormat profile                   : Streaming Video@L1\nCodec ID                         : XVID\nCodec ID/Hint                    : XviD\nDuration                         : 1h 38mn\nBit rate                         : 875 Kbps\nWidth                            : 720 pixels\nHeight                           : 304 pixels\nDisplay aspect ratio             : 2.35\nFrame rate                       : 23.976 fps\nResolution                       : 24 bits\nColorimetry                      : 4:2:0\nScan type                        : Progressive\nBits/(Pixel*Frame)               : 0.167\nStream size                      : 619 MiB (88%)\nWriting library                  : XviD\n\nAudio\nFormat                           : MPEG Audio\nFormat version                   : Version 1\nFormat profile                   : Layer 3\nCodec ID                         : 55\nCodec ID/Hint                    : MP3\nDuration                         : 1h 38mn\nBit rate mode                    : Variable\nBit rate                         : 104 Kbps\nMinimum bit rate                 : 128 Kbps\nChannel(s)                       : 2 channels\nSampling rate                    : 48.0 KHz\nResolution                       : 16 bits\nStream size                      : 73.4 MiB (10%)\nWriting library                  : LAME3.98r\nEncoding settings                : ABR\n","torrent":{"xt":"urn:btih:863cde9f6266475bd2d853ce8e063e0ab8f45799","amp;dn":"Drag.Me.to.Hell.2009.DVDRIP.XviD-ZEKTORM","amp;tr":["udp%3A%2F%2Ftracker.openbittorrent.com%3A80","udp%3A%2F%2Fopen.demonii.com%3A1337","udp%3A%2F%2Ftracker.coppersurfer.tk%3A6969","udp%3A%2F%2Fexodus.desync.com%3A6969"],"infoHash":"863cde9f6266475bd2d853ce8e063e0ab8f45799","infoHashBuffer":{"type":"Buffer","data":[134,60,222,159,98,102,71,91,210,216,83,206,142,6,62,10,184,244,87,153]},"announce":[],"urlList":[]}}